<?xml version="1.0" encoding="UTF-8"?>
<svg id="Layer_1" data-name="Layer 1" xmlns="http://www.w3.org/2000/svg" version="1.1" viewBox="0 0 500 500">
  <defs>
    <style>
      .cls-1 {
        fill: #fff;
      }

      .cls-1, .cls-2 {
        stroke-width: 0px;
      }

      .cls-2 {
        fill: #231f20;
      }
    </style>
  </defs>
  <rect class="cls-2" width="500" height="500"/>
  <g>
    <path class="cls-1" d="M250.8,190.7c56.3,37.5,111.8,42.4,165,14.6,11.4-6,21.5-12.9,30.2-19.7-27.8-82.3-105.7-141.6-197.4-141.6S87,97.5,55.8,173.4c7.3-3.1,15.2-6,23.7-8.6,59.6-18,118.9-9,171.3,25.9Z"/>
    <path class="cls-1" d="M236,234c-2.8-1.7-5.7-3.6-8.5-5.4-27.5-18.3-56.7-27.6-86.9-27.6s-30.5,2.3-46.1,6.9c-18.9,5.6-34.4,13.5-44.8,19.7-1.1,8.7-1.7,17.5-1.7,26.3,0,66.5,33.3,129.1,87.6,166.6,0-7.4.6-14.7,1.9-21.6,5.6-30.4,22.5-55.3,50.4-73.9,50.2-33.5,51-72.9,48.1-91Z"/>
    <path class="cls-1" d="M450.7,238.2c-3.9,2.4-8,4.8-12.1,7-29.3,15.5-59.8,23.4-90.9,23.4s-40.6-3.4-60.9-10.1c-.2,2.1-.5,4.4-.8,6.5-4.1,28.1-19.7,68.8-70.3,102.6-16.2,10.8-25.5,24-28.6,40.6-2.1,11.6-1.3,24.7,2.4,39h.1c19.3,6,39.5,9.1,60,9.1,111.2,0,201.7-90.7,201.7-202,0-5.4-.1-10.8-.6-16.1Z"/>
  </g>
</svg>