<?xml version="1.0" encoding="utf-8"?>
<!-- Generator: Adobe Illustrator 28.0.0, SVG Export Plug-In . SVG Version: 6.00 Build 0)  -->
<svg version="1.1" id="Layer_1" xmlns="http://www.w3.org/2000/svg" xmlns:xlink="http://www.w3.org/1999/xlink" x="0px" y="0px"
	 viewBox="0 0 500 500" style="enable-background:new 0 0 500 500;" xml:space="preserve">
<style type="text/css">
	.st0{fill:#111111;}
</style>
<g>
	<path class="st0" d="M250.8,190.7c56.3,37.5,111.8,42.4,165,14.6c11.4-6,21.5-12.9,30.2-19.7C418.2,103.3,340.3,44,248.6,44
		C161.6,44,87,97.5,55.8,173.4c7.3-3.1,15.2-6,23.7-8.6C139.1,146.8,198.4,155.8,250.8,190.7z"/>
	<path class="st0" d="M236,234c-2.8-1.7-5.7-3.6-8.5-5.4C200,210.3,170.8,201,140.6,201c-15,0-30.5,2.3-46.1,6.9
		c-18.9,5.6-34.4,13.5-44.8,19.7c-1.1,8.7-1.7,17.5-1.7,26.3c0,66.5,33.3,129.1,87.6,166.6c0-7.4,0.6-14.7,1.9-21.6
		c5.6-30.4,22.5-55.3,50.4-73.9C238.1,291.5,238.9,252.1,236,234z"/>
	<path class="st0" d="M450.7,238.2c-3.9,2.4-8,4.8-12.1,7c-29.3,15.5-59.8,23.4-90.9,23.4c-20.2,0-40.6-3.4-60.9-10.1
		c-0.2,2.1-0.5,4.4-0.8,6.5c-4.1,28.1-19.7,68.8-70.3,102.6c-16.2,10.8-25.5,24-28.6,40.6c-2.1,11.6-1.3,24.7,2.4,39h0.1
		c19.3,6,39.5,9.1,60,9.1c111.2,0,201.7-90.7,201.7-202C451.4,248.9,451.2,243.5,450.7,238.2z"/>
</g>
</svg>
